<svg width="40" height="40" viewBox="0 0 40 40" fill="none" xmlns="http://www.w3.org/2000/svg">
<path d="M24.6875 11.375C22.8041 11.375 21.1325 12.1184 20 13.3963C18.8675 12.1184 17.1959 11.375 15.3125 11.375C13.6721 11.377 12.0994 12.0295 10.9395 13.1895C9.77952 14.3494 9.12698 15.9221 9.125 17.5625C9.125 24.3444 19.0447 29.7631 19.4666 29.9909C19.6305 30.0792 19.8138 30.1254 20 30.1254C20.1862 30.1254 20.3695 30.0792 20.5334 29.9909C20.9553 29.7631 30.875 24.3444 30.875 17.5625C30.873 15.9221 30.2205 14.3494 29.0605 13.1895C27.9006 12.0295 26.3279 11.377 24.6875 11.375ZM24.1728 24.7213C22.8671 25.8292 21.4714 26.8264 20 27.7025C18.5286 26.8264 17.1329 25.8292 15.8272 24.7213C13.7956 22.9784 11.375 20.3206 11.375 17.5625C11.375 16.5182 11.7898 15.5167 12.5283 14.7783C13.2667 14.0398 14.2682 13.625 15.3125 13.625C16.9812 13.625 18.3781 14.5063 18.9584 15.9256C19.0429 16.1325 19.1871 16.3096 19.3726 16.4342C19.5581 16.5589 19.7765 16.6255 20 16.6255C20.2235 16.6255 20.4419 16.5589 20.6274 16.4342C20.8129 16.3096 20.9571 16.1325 21.0416 15.9256C21.6219 14.5063 23.0188 13.625 24.6875 13.625C25.7318 13.625 26.7333 14.0398 27.4717 14.7783C28.2102 15.5167 28.625 16.5182 28.625 17.5625C28.625 20.3206 26.2044 22.9784 24.1728 24.7213Z" fill="white"/>
</svg>
