<svg width="40" height="40" viewBox="0 0 40 40" fill="none" xmlns="http://www.w3.org/2000/svg">
<g clip-path="url(#clip0_3_4336)">
<path d="M21.9646 20.2353C23.0549 20.2353 24.0417 19.7741 24.7562 19.0288C25.4699 18.2844 25.912 17.2549 25.912 16.1176C25.912 14.9804 25.4699 13.9509 24.7562 13.2065C24.0417 12.4612 23.0549 12 21.9646 12C20.8744 12 19.8875 12.4612 19.173 13.2065C18.4594 13.9509 18.0173 14.9804 18.0173 16.1176C18.0173 17.2549 18.4594 18.2844 19.173 19.0288C19.5396 19.4113 19.9748 19.7147 20.4538 19.9217C20.9328 20.1287 21.4462 20.2353 21.9646 20.2353ZM21.9646 26C24.742 26 26.7015 25.1765 26.7015 24.3529C26.7015 22.7059 24.843 21.0588 21.9646 21.0588C19.0041 21.0588 17.2278 22.7059 17.2278 24.3529C17.2278 25.1765 19.0041 26 21.9646 26ZM31.4383 18.5882H29.8594V16.9412C29.8594 16.7228 29.7762 16.5133 29.6281 16.3589C29.4801 16.2044 29.2793 16.1176 29.0699 16.1176C28.8605 16.1176 28.6597 16.2044 28.5116 16.3589C28.3636 16.5133 28.2804 16.7228 28.2804 16.9412V18.5882H26.7015C26.4921 18.5882 26.2913 18.675 26.1432 18.8294C25.9952 18.9839 25.912 19.1934 25.912 19.4118C25.912 19.6302 25.9952 19.8396 26.1432 19.9941C26.2913 20.1485 26.4921 20.2353 26.7015 20.2353H28.2804V21.8824C28.2804 22.1008 28.3636 22.3102 28.5116 22.4647C28.6597 22.6191 28.8605 22.7059 29.0699 22.7059C29.2793 22.7059 29.4801 22.6191 29.6281 22.4647C29.7762 22.3102 29.8594 22.1008 29.8594 21.8824V20.2353H31.4383C31.6477 20.2353 31.8485 20.1485 31.9966 19.9941C32.1446 19.8396 32.2278 19.6302 32.2278 19.4118C32.2278 19.1934 32.1446 18.9839 31.9966 18.8294C31.8485 18.675 31.6477 18.5882 31.4383 18.5882Z" fill="white"/>
</g>
<defs>
<clipPath id="clip0_3_4336">
<rect width="24" height="24" fill="white" transform="translate(8 8)"/>
</clipPath>
</defs>
</svg>
