<svg width="40" height="40" viewBox="0 0 40 40" fill="none" xmlns="http://www.w3.org/2000/svg">
<path d="M29.375 17.75C29.375 18.0484 29.2565 18.3345 29.0455 18.5455C28.8345 18.7565 28.5484 18.875 28.25 18.875C27.9516 18.875 27.6655 18.7565 27.4545 18.5455C27.2435 18.3345 27.125 18.0484 27.125 17.75V14.4688L21.5459 20.0478C21.3346 20.2592 21.0479 20.3779 20.7491 20.3779C20.4502 20.3779 20.1635 20.2592 19.9522 20.0478C19.7408 19.8365 19.6221 19.5498 19.6221 19.2509C19.6221 18.9521 19.7408 18.6654 19.9522 18.4541L25.5312 12.875H22.25C21.9516 12.875 21.6655 12.7565 21.4545 12.5455C21.2435 12.3345 21.125 12.0484 21.125 11.75C21.125 11.4516 21.2435 11.1655 21.4545 10.9545C21.6655 10.7435 21.9516 10.625 22.25 10.625H28.25C28.5484 10.625 28.8345 10.7435 29.0455 10.9545C29.2565 11.1655 29.375 11.4516 29.375 11.75V17.75ZM25.25 20C24.9516 20 24.6655 20.1185 24.4545 20.3295C24.2435 20.5405 24.125 20.8266 24.125 21.125V27.125H12.875V15.875H18.875C19.1734 15.875 19.4595 15.7565 19.6705 15.5455C19.8815 15.3345 20 15.0484 20 14.75C20 14.4516 19.8815 14.1655 19.6705 13.9545C19.4595 13.7435 19.1734 13.625 18.875 13.625H12.5C12.0027 13.625 11.5258 13.8225 11.1742 14.1742C10.8225 14.5258 10.625 15.0027 10.625 15.5V27.5C10.625 27.9973 10.8225 28.4742 11.1742 28.8258C11.5258 29.1775 12.0027 29.375 12.5 29.375H24.5C24.9973 29.375 25.4742 29.1775 25.8258 28.8258C26.1775 28.4742 26.375 27.9973 26.375 27.5V21.125C26.375 20.8266 26.2565 20.5405 26.0455 20.3295C25.8345 20.1185 25.5484 20 25.25 20Z" fill="white"/>
</svg>
